<svg version="1.1" xmlns="http://www.w3.org/2000/svg" viewBox="0 0 842.8359375 731.4375" width="1685.671875" height="1462.875" filter="invert(93%) hue-rotate(180deg)">
  <!-- svg-source:excalidraw -->
  
  <defs>
    <style class="style-fonts">
      @font-face {
        font-family: "Virgil";
        src: url("https://excalidraw.com/Virgil.woff2");
      }
      @font-face {
        font-family: "Cascadia";
        src: url("https://excalidraw.com/Cascadia.woff2");
      }
    </style>
  </defs>
  <rect x="0" y="0" width="842.8359375" height="731.4375" fill="#ffffff"></rect><g stroke-linecap="round" transform="translate(10 10) rotate(0 411.41796875 355.71875)"><path d="M32 0 M32 0 C317.67 1.39, 604.19 1.29, 790.84 0 M32 0 C217.68 2.58, 403.14 2.2, 790.84 0 M790.84 0 C811.95 -0.08, 824.05 11.14, 822.84 32 M790.84 0 C813.36 0.13, 821.22 12.42, 822.84 32 M822.84 32 C823.44 252.04, 823.45 472.39, 822.84 679.44 M822.84 32 C821.26 284.6, 821.34 537.31, 822.84 679.44 M822.84 679.44 C822.71 700.73, 813.06 710.23, 790.84 711.44 M822.84 679.44 C822.27 698.64, 810.27 710.37, 790.84 711.44 M790.84 711.44 C609.65 711.9, 426.84 712.93, 32 711.44 M790.84 711.44 C620.6 714.2, 450.2 714.29, 32 711.44 M32 711.44 C11.11 709.75, -1.52 699.87, 0 679.44 M32 711.44 C9.15 711.07, -0.01 700.15, 0 679.44 M0 679.44 C-0.81 442.04, -1.17 205.83, 0 32 M0 679.44 C1.64 542.02, 1.74 404.42, 0 32 M0 32 C-1.56 10.72, 8.79 1.63, 32 0 M0 32 C-0.5 12.38, 11.93 -0.81, 32 0" stroke="#000000" stroke-width="1" fill="none"></path></g><g transform="translate(298.53125 30.60546875) rotate(0 131 12.5)"><text x="0" y="18" font-family="Virgil, Segoe UI Emoji" font-size="20px" fill="#000000" text-anchor="start" style="white-space: pre;" direction="ltr">Finstreet Burger Challenge</text></g><g stroke-linecap="round" transform="translate(55.62109375 87.96484375) rotate(0 172.20703125 242.232421875)"><path d="M32 0 M32 0 C129.96 3.05, 228.64 1.82, 312.41 0 M32 0 C120.66 -0.96, 209.19 -1.73, 312.41 0 M312.41 0 C335.23 -1.44, 343.08 9.29, 344.41 32 M312.41 0 C335.72 -1.6, 345.74 8.97, 344.41 32 M344.41 32 C344.78 116.98, 344.64 202.32, 344.41 452.46 M344.41 32 C346 180.26, 346.48 329.04, 344.41 452.46 M344.41 452.46 C342.51 473.04, 334.7 483.42, 312.41 484.46 M344.41 452.46 C343.49 475.28, 331.61 482.54, 312.41 484.46 M312.41 484.46 C207.74 486.01, 103.9 485.06, 32 484.46 M312.41 484.46 C250.83 483.36, 189.07 483.58, 32 484.46 M32 484.46 C8.98 482.86, 0.36 473.91, 0 452.46 M32 484.46 C12.2 483.78, 1.4 473.26, 0 452.46 M0 452.46 C1.44 322.48, 2.41 193.99, 0 32 M0 452.46 C1.84 290.03, 2.09 126.77, 0 32 M0 32 C-1.35 9.16, 12.64 -1.93, 32 0 M0 32 C-1.04 8.56, 9.07 -2.03, 32 0" stroke="#000000" stroke-width="1" fill="none"></path></g><g stroke-linecap="round" transform="translate(442.98046875 87.509765625) rotate(0 172.20703125 242.232421875)"><path d="M32 0 M32 0 C93.78 -1.41, 154.06 -0.71, 312.41 0 M32 0 C119.01 0.3, 206.37 0.67, 312.41 0 M312.41 0 C333.55 1.06, 342.84 10.59, 344.41 32 M312.41 0 C332.06 -2.16, 344.4 9.39, 344.41 32 M344.41 32 C346.09 181.3, 346.17 332.04, 344.41 452.46 M344.41 32 C342.26 165.16, 342.83 298.71, 344.41 452.46 M344.41 452.46 C344.15 472.67, 333.44 483.94, 312.41 484.46 M344.41 452.46 C344.81 472.1, 334.29 484.45, 312.41 484.46 M312.41 484.46 C222.25 483.42, 128.95 483.4, 32 484.46 M312.41 484.46 C210.56 483.08, 108.6 482.55, 32 484.46 M32 484.46 C8.76 485.53, 0.3 473.92, 0 452.46 M32 484.46 C10.28 485.29, -1.25 473.24, 0 452.46 M0 452.46 C1.05 335.33, 0.02 216.6, 0 32 M0 452.46 C1.22 338.23, 1.57 224.73, 0 32 M0 32 C-0.55 11.88, 9.36 -1.99, 32 0 M0 32 C-1.8 11.53, 11.16 0.87, 32 0" stroke="#000000" stroke-width="1" fill="none"></path></g><g transform="translate(192.52734375 110.171875) rotate(0 27.5 12.5)"><text x="0" y="18" font-family="Virgil, Segoe UI Emoji" font-size="20px" fill="#000000" text-anchor="start" style="white-space: pre;" direction="ltr">Order</text></g><g transform="translate(552.3984375 109.265625) rotate(0 72.5 12.5)"><text x="0" y="18" font-family="Virgil, Segoe UI Emoji" font-size="20px" fill="#000000" text-anchor="start" style="white-space: pre;" direction="ltr">Order Summary</text></g><g stroke-linecap="round" transform="translate(306.35546875 627.83203125) rotate(0 119.427734375 33.8984375)"><path d="M4.51 3.92 C4.51 3.92, 4.51 3.92, 4.51 3.92 M4.51 3.92 C4.51 3.92, 4.51 3.92, 4.51 3.92 M0.97 14.09 C4.91 9.09, 9.24 7.1, 10.81 2.77 M0.97 14.09 C3.35 11.96, 4.93 10.15, 10.81 2.77 M1.36 19.74 C6.98 13.92, 9.86 6.69, 17.77 0.87 M1.36 19.74 C7.51 13.17, 11.64 6.69, 17.77 0.87 M1.1 26.13 C7.21 17.91, 17.94 7.42, 23.41 0.47 M1.1 26.13 C8.87 17.72, 14.54 10.08, 23.41 0.47 M1.5 31.78 C8.77 19.99, 16.75 11.87, 28.4 0.83 M1.5 31.78 C9.48 21.87, 18.96 11.6, 28.4 0.83 M1.24 38.17 C12.09 25, 23.84 10.37, 34.04 0.44 M1.24 38.17 C13.29 23.93, 26.5 7.74, 34.04 0.44 M0.97 44.57 C9.68 31.59, 20.04 18.78, 39.03 0.8 M0.97 44.57 C16.61 27.87, 30.9 9.28, 39.03 0.8 M1.37 50.22 C10.7 39.63, 19.45 28.24, 44.67 0.4 M1.37 50.22 C12.93 37.22, 23.28 25.94, 44.67 0.4 M1.76 55.86 C12.55 45.38, 19.56 33.42, 49.66 0.77 M1.76 55.86 C17.85 38.19, 33.04 20.33, 49.66 0.77 M2.16 61.5 C18.62 42.95, 32.37 26.25, 54.64 1.13 M2.16 61.5 C13.84 46.71, 25.58 34.24, 54.64 1.13 M5.83 63.37 C19.35 49.17, 29.45 32.78, 60.29 0.73 M5.83 63.37 C18 50.15, 30.23 36.63, 60.29 0.73 M8.85 66 C20.75 50.81, 35.82 36.39, 65.27 1.09 M8.85 66 C28.78 43.75, 49.89 20.65, 65.27 1.09 M11.87 68.62 C25.34 51.14, 39.43 37.55, 70.92 0.7 M11.87 68.62 C33.88 42.56, 56.28 18.11, 70.92 0.7 M17.51 68.23 C40.23 42.1, 62.11 19.97, 75.9 1.06 M17.51 68.23 C28.82 53.78, 40.45 39.75, 75.9 1.06 M22.5 68.59 C42.77 41.88, 65.77 15.39, 81.55 0.66 M22.5 68.59 C35.12 52.44, 49.06 37.46, 81.55 0.66 M28.14 68.19 C45.94 47.16, 62.83 26.21, 86.53 1.02 M28.14 68.19 C42.26 52.98, 53.96 38.46, 86.53 1.02 M33.13 68.55 C56.04 43.12, 74.14 19.42, 92.18 0.63 M33.13 68.55 C45.56 53.49, 58.15 39.49, 92.18 0.63 M38.77 68.16 C55.26 49.97, 71.02 31.58, 97.16 0.99 M38.77 68.16 C62.19 41.1, 85.21 15.58, 97.16 0.99 M43.76 68.52 C64.94 45.39, 84.92 24.26, 102.81 0.59 M43.76 68.52 C59.35 51.15, 73.13 33.63, 102.81 0.59 M49.4 68.12 C64.81 51.4, 78.85 36.13, 107.79 0.95 M49.4 68.12 C60.7 54.74, 73.35 42.29, 107.79 0.95 M54.39 68.48 C70.48 50.67, 86.79 31.02, 113.44 0.56 M54.39 68.48 C73.44 46.51, 92.47 24.7, 113.44 0.56 M60.03 68.09 C78.24 43.22, 98.99 23.5, 118.42 0.92 M60.03 68.09 C75.23 51.93, 90.13 33.68, 118.42 0.92 M65.02 68.45 C87.12 41.73, 110.48 18.67, 124.07 0.52 M65.02 68.45 C81.2 50.57, 97.32 32.01, 124.07 0.52 M70.66 68.05 C83.94 52.12, 101.48 35.82, 129.05 0.88 M70.66 68.05 C83.58 53.02, 98.34 36.78, 129.05 0.88 M75.65 68.41 C101.38 40.06, 122.02 13.46, 134.7 0.49 M75.65 68.41 C99.64 41.67, 122.27 14.74, 134.7 0.49 M81.29 68.02 C96.64 49.36, 111.55 33.58, 139.68 0.85 M81.29 68.02 C102.52 43.27, 126.01 16.33, 139.68 0.85 M86.28 68.38 C109.14 45.09, 129.41 16.71, 145.33 0.45 M86.28 68.38 C101.45 51.6, 116.34 34.88, 145.33 0.45 M91.92 67.98 C114.19 41.97, 133.89 19.24, 150.31 0.81 M91.92 67.98 C104.89 53.36, 117.57 38.64, 150.31 0.81 M96.91 68.34 C115.31 47.77, 132.55 26.66, 155.96 0.42 M96.91 68.34 C113.94 49.49, 130.59 31.17, 155.96 0.42 M102.55 67.95 C124.74 41.62, 149.58 15.4, 160.94 0.78 M102.55 67.95 C125.53 41.7, 148.72 14.28, 160.94 0.78 M107.54 68.31 C121 52.43, 136.16 37.77, 165.93 1.14 M107.54 68.31 C129.01 45.01, 149.06 22.84, 165.93 1.14 M113.18 67.91 C130.88 48.25, 145.84 32.25, 171.57 0.75 M113.18 67.91 C128.29 50.79, 141.53 34.33, 171.57 0.75 M118.17 68.27 C140.38 39.33, 165.07 15.87, 176.56 1.11 M118.17 68.27 C139.92 41.19, 163.95 13.51, 176.56 1.11 M123.16 68.64 C141.45 48.49, 161.51 25.6, 182.2 0.71 M123.16 68.64 C138.56 50.25, 153.01 33.32, 182.2 0.71 M128.8 68.24 C144.65 49.44, 162.64 28.58, 187.19 1.07 M128.8 68.24 C143.9 51.89, 159.17 34.74, 187.19 1.07 M133.79 68.6 C144.93 51.61, 159.32 35.84, 192.83 0.68 M133.79 68.6 C156.29 41.9, 178.38 17.21, 192.83 0.68 M139.43 68.21 C160.66 45.05, 181.33 22.82, 197.82 1.04 M139.43 68.21 C160.72 43.78, 182.54 20.18, 197.82 1.04 M144.42 68.57 C159.1 51.32, 173 36.55, 203.46 0.64 M144.42 68.57 C163.36 47.74, 180.51 26.39, 203.46 0.64 M150.06 68.17 C168.71 50.24, 185.12 27.78, 208.45 1 M150.06 68.17 C167.29 49.96, 182.57 30.08, 208.45 1 M155.05 68.53 C175.74 44.58, 198.23 19.14, 214.09 0.61 M155.05 68.53 C170.53 51.26, 183.75 36.16, 214.09 0.61 M160.69 68.14 C183.91 39.84, 206.72 12.46, 219.08 0.97 M160.69 68.14 C182.6 42.61, 202.75 19.83, 219.08 0.97 M165.68 68.5 C189.88 44.9, 211.69 19.56, 224.07 1.33 M165.68 68.5 C183.56 48.93, 200.43 30.15, 224.07 1.33 M171.32 68.1 C184.17 54.45, 195.65 40.1, 229.71 0.93 M171.32 68.1 C188.44 50.05, 204.6 29.76, 229.71 0.93 M176.31 68.46 C187.58 53.47, 201.29 40.12, 232.73 3.56 M176.31 68.46 C189.6 51.91, 203.83 36.09, 232.73 3.56 M181.95 68.07 C193.85 50.59, 208.17 33.29, 236.41 5.43 M181.95 68.07 C198.41 47.12, 217.35 27.62, 236.41 5.43 M186.94 68.43 C206.06 46.88, 225.08 22.49, 238.11 9.56 M186.94 68.43 C200.59 52.24, 216.16 35.42, 238.11 9.56 M192.58 68.03 C204.84 50.78, 218.91 36.06, 239.82 13.69 M192.58 68.03 C206.42 53.15, 219.35 36.89, 239.82 13.69 M197.57 68.39 C210.16 51.87, 225.58 38.62, 239.56 20.09 M197.57 68.39 C214.19 49.78, 231.57 30.51, 239.56 20.09 M203.21 68 C210.25 57.39, 219.64 46.8, 239.3 26.49 M203.21 68 C218.07 52.36, 230.78 34.68, 239.3 26.49 M208.2 68.36 C218.37 55.24, 225.66 47.01, 239.03 32.89 M208.2 68.36 C219.26 54.55, 230.59 42.01, 239.03 32.89 M213.84 67.96 C223.15 58.15, 230.39 47.2, 239.43 38.53 M213.84 67.96 C221.87 57.21, 230.99 48.96, 239.43 38.53 M218.83 68.32 C226.07 59.94, 230.56 55.14, 239.17 44.93 M218.83 68.32 C223.42 64.21, 227.55 58.79, 239.17 44.93 M223.16 69.44 C230.13 63, 233.48 58.87, 238.91 51.33 M223.16 69.44 C227.51 64.1, 230.64 59.05, 238.91 51.33 M230.12 67.54 C232.74 64.88, 234.63 61.92, 237.99 58.48 M230.12 67.54 C233.51 64.31, 235.91 60.42, 237.99 58.48" stroke="#4c6ef5" stroke-width="0.5" fill="none"></path><path d="M16.95 0 M16.95 0 C58.86 -0.75, 101.75 -2.95, 221.91 0 M16.95 0 C59.5 -0.49, 101.83 1.06, 221.91 0 M221.91 0 C234.68 -1.29, 239.06 5.27, 238.86 16.95 M221.91 0 C234.67 1.42, 239.99 5.09, 238.86 16.95 M238.86 16.95 C237.45 24.11, 240.97 29.44, 238.86 50.85 M238.86 16.95 C238.81 28.62, 238.77 40.37, 238.86 50.85 M238.86 50.85 C237.78 61.85, 232.35 69.62, 221.91 67.8 M238.86 50.85 C238.76 62.8, 232.01 68.16, 221.91 67.8 M221.91 67.8 C175.53 67.57, 132.41 68.31, 16.95 67.8 M221.91 67.8 C153.7 68.31, 85.99 69.2, 16.95 67.8 M16.95 67.8 C3.79 67.8, -1.49 60.65, 0 50.85 M16.95 67.8 C4.73 66.97, 1.5 62.34, 0 50.85 M0 50.85 C0.13 44.76, -0.49 38.26, 0 16.95 M0 50.85 C0.62 38.61, -0.67 27.59, 0 16.95 M0 16.95 C-1.91 5.93, 4.69 1.67, 16.95 0 M0 16.95 C1.1 3.79, 5.94 0.89, 16.95 0" stroke="#000000" stroke-width="1" fill="none"></path></g><g transform="translate(381.783203125 649.23046875) rotate(0 44 12.5)"><text x="44" y="18" font-family="Virgil, Segoe UI Emoji" font-size="20px" fill="#000000" text-anchor="middle" style="white-space: pre;" direction="ltr">Checkout</text></g></svg>